<mxfile host="app.diagrams.net" modified="2023-10-04T22:23:22.413Z" agent="Mozilla/5.0 (Macintosh; Intel Mac OS X 10_15_7) AppleWebKit/537.36 (KHTML, like Gecko) Chrome/111.0.0.0 Safari/537.36" version="22.0.2" etag="wL5jvo9_CiRuVXHkGOvD" type="github">
  <diagram name="Page-1" id="HzESimphNa48oFsNRLRn">
    <mxGraphModel>
      <root>
        <mxCell id="0" />
        <mxCell id="1" parent="0" />
      </root>
    </mxGraphModel>
  </diagram>
</mxfile>
